# xmcd
#
# Track frame offsets:
#	150
#	9601
#	21497
#	34476
#	44442
#	55137
#	73118
#	87547
#	105414
#	123601
#	137250
#	148503
#	158822
#	169301
#	183971
#	200649
#	211898
#	221327
#	235513
#	248030
#	260527
#	271864
#	281080
#	293469
#	305243
#	317256
#
# Disc length: 4411 seconds
#
# Revision: 0
# Processed by: cddbd v1.5.2PL0 Copyright (c) Steve Scherf et al.
# Submitted via: EasyCDDAExtractor 12.0.1.1
#
DISCID=8011391a
DTITLE=Various Artist - Johnny Cash Disc 1
DYEAR=2000
DGENRE=Country
TTITLE0=Johnny Cash - Austin Prison
TTITLE1=Johnny Cash - Apache Tears
TTITLE2=Johnny Cash - Big Bad John
TTITLE3=Johnny Cash - Blue River
TTITLE4=Johnny Cash - Bonanza
TTITLE5=Johnny Cash - Hidden Shame
TTITLE6=Johnny Cash - Monteagle Mountain
TTITLE7=Johnny Cash - Boy Named Sue
TTITLE8=Johnny Cash - Cadillac Song
TTITLE9=Johnny Cash - Cocaine Blues
TTITLE10=Johnny Cash - Track 10
TTITLE11=Johnny Cash - Delia
TTITLE12=Johnny Cash - Daddy sang base
TTITLE13=Johnny Cash - Desperado
TTITLE14=Johnny Cash - Ghost Riders In The Sky
TTITLE15=Jonny Cash - Green Beret
TTITLE16=Johnny Cash - It Was Jesus
TTITLE17=Johnny Cash - Joe Bean
TTITLE18=Johnny Cash - My Ship Will Sail
TTITLE19=Johnny Cash - W. Lee O'Daniel
TTITLE20=Jonny Cash - Oh Lonsome Me
TTITLE21=Johnny Cash - Rawhide
TTITLE22=Johnny Cash - Ring of Fire
TTITLE23=Johnny Cash - Ring of Fire
TTITLE24=Johnny Cash - Sam Hall
TTITLE25=Johnny Cash - San Quentin
EXTD=
EXTT0=
EXTT1=
EXTT2=
EXTT3=
EXTT4=
EXTT5=
EXTT6=
EXTT7=
EXTT8=
EXTT9=
EXTT10=
EXTT11=
EXTT12=
EXTT13=
EXTT14=
EXTT15=
EXTT16=
EXTT17=
EXTT18=
EXTT19=
EXTT20=
EXTT21=
EXTT22=
EXTT23=
EXTT24=
EXTT25=
PLAYORDER=
